<svg width="1312" height="192" viewBox="0 0 1312 192" fill="none" xmlns="http://www.w3.org/2000/svg">
<g opacity="0.2">
<path d="M388.4 116.852L426.161 34.2629H457.683L379.672 192H349.057L373.95 145.697L319.804 34.2629H351.099L388.4 116.852Z" fill="#8694B5"/>
<path d="M1094.02 31.7734C1107.32 31.7734 1118.74 33.6587 1128.26 37.4305C1137.79 41.0515 1145.27 46.3325 1150.71 53.2726C1156.31 60.2127 1159.56 68.5866 1160.46 78.3934H1133.48C1130.91 70.8498 1126.15 64.9655 1119.19 60.741C1112.24 56.5166 1103.85 54.4038 1094.02 54.4038C1086.16 54.4038 1078.98 55.7619 1072.48 58.4776C1066.13 61.1933 1060.99 65.2675 1057.06 70.6989C1053.28 75.9794 1051.39 82.6929 1051.39 90.8398C1051.39 98.8361 1053.28 105.55 1057.06 110.982C1060.84 116.262 1065.98 120.26 1072.48 122.976C1078.98 125.541 1086.16 126.824 1094.02 126.824C1104.6 126.824 1113.22 124.711 1119.87 120.486C1126.68 116.262 1131.29 110.227 1133.71 102.382H1160.69C1159.94 112.189 1156.76 120.638 1151.17 127.729C1145.72 134.82 1138.17 140.251 1128.49 144.023C1118.81 147.644 1107.32 149.454 1094.02 149.454C1080.11 149.454 1067.64 147.266 1056.6 142.891C1045.72 138.365 1037.1 131.802 1030.75 123.202C1024.55 114.451 1021.45 103.664 1021.45 90.8398C1021.45 78.0157 1024.55 67.2282 1030.75 58.4776C1037.1 49.727 1045.72 43.0889 1056.6 38.5628C1067.64 34.0367 1080.11 31.7735 1094.02 31.7734Z" fill="#8694B5"/>
<path fill-rule="evenodd" clip-rule="evenodd" d="M1246.99 31.7734C1261.8 31.7734 1274.13 34.1117 1283.95 38.7888C1293.78 43.4658 1301.04 50.557 1305.72 60.0619C1310.56 69.4159 1312.6 81.4103 1311.85 96.0448H1204.36C1205.11 101.778 1207.23 106.984 1210.71 111.661C1214.33 116.338 1219.17 120.034 1225.22 122.75C1231.42 125.466 1238.75 126.824 1247.22 126.824C1256.59 126.824 1264.38 125.239 1270.57 122.071C1276.92 118.752 1281.01 114.527 1282.82 109.397H1311.39C1310.18 117.092 1306.93 123.956 1301.64 129.991C1296.5 136.026 1289.47 140.779 1280.55 144.249C1271.63 147.719 1260.75 149.454 1247.9 149.454C1233.53 149.454 1220.83 147.191 1209.8 142.665C1198.76 137.988 1190.14 131.274 1183.95 122.524C1177.75 113.773 1174.65 103.211 1174.65 90.8398C1174.65 78.4684 1177.67 67.9073 1183.72 59.1567C1189.77 50.2552 1198.16 43.4659 1208.89 38.7888C1219.78 34.1118 1232.48 31.7735 1246.99 31.7734ZM1245.63 54.1777C1234.74 54.1777 1225.9 56.5922 1219.1 61.4201C1212.29 66.0972 1207.91 71.9053 1205.94 78.8455H1282.59C1281.84 71.302 1278.21 65.3423 1271.71 60.9671C1265.36 56.4409 1256.66 54.1778 1245.63 54.1777Z" fill="#8694B5"/>
<path fill-rule="evenodd" clip-rule="evenodd" d="M224.864 31.7734C237.866 31.7735 248.297 34.4136 256.158 39.694C264.171 44.8237 269.992 51.8395 273.62 60.741C274.579 63.0924 275.41 65.5179 276.115 68.0167V34.2629H305.595V146.739H278.156C278.154 146.732 277.928 145.299 277.475 142.439C277.173 139.421 276.87 135.65 276.568 131.124C276.266 126.597 276.115 122.146 276.115 117.771V110.214C276.04 110.469 275.965 110.726 275.887 110.982C273.771 117.771 270.521 124.107 266.137 129.991C261.752 135.724 256.008 140.402 248.902 144.023C241.797 147.493 233.255 149.228 223.277 149.228C212.089 149.228 201.884 146.814 192.662 141.986C183.591 137.007 176.334 130.142 170.892 121.392C165.6 112.49 162.955 102.231 162.955 90.6138C162.955 78.6948 165.675 68.3594 171.118 59.6088C176.56 50.8584 183.893 44.0698 193.115 39.2419C202.489 34.2631 213.072 31.7734 224.864 31.7734ZM232.801 54.6308C220.253 54.6308 210.502 57.9496 203.548 64.5877C196.593 71.0753 193.115 79.7509 193.115 90.6138C193.115 97.8555 194.779 104.192 198.104 109.623C201.43 114.904 206.041 119.053 211.937 122.071C217.985 125.088 224.94 126.597 232.801 126.597C241.721 126.597 249.431 125.088 255.932 122.071C262.433 119.053 267.422 114.829 270.899 109.397C274.376 103.966 276.115 97.7047 276.115 90.6138C276.115 82.9192 274.3 76.4316 270.672 71.151C267.195 65.7198 262.206 61.6463 255.705 58.9307C249.356 56.0641 241.721 54.6308 232.801 54.6308Z" fill="#8694B5"/>
<path fill-rule="evenodd" clip-rule="evenodd" d="M700.84 31.7734C713.842 31.7734 724.274 34.4135 732.135 39.694C740.148 44.8237 745.969 51.8395 749.597 60.741C750.556 63.0936 751.386 65.5206 752.092 68.0207V34.2629H781.572V146.739H754.132C754.132 146.739 753.905 145.305 753.452 142.439C753.149 139.421 752.847 135.65 752.545 131.124C752.242 126.597 752.092 122.146 752.092 117.771V110.212C752.016 110.468 751.942 110.725 751.864 110.982C749.748 117.771 746.498 124.107 742.113 129.991C737.729 135.724 731.984 140.402 724.879 144.023C717.773 147.493 709.231 149.228 699.254 149.228C688.066 149.228 677.861 146.813 668.639 141.986C659.568 137.007 652.311 130.142 646.868 121.392C641.577 112.49 638.932 102.231 638.932 90.6138C638.932 78.6948 641.652 68.3594 647.095 59.6088C652.537 50.8583 659.87 44.0698 669.092 39.2419C678.465 34.2631 689.048 31.7735 700.84 31.7734ZM708.778 54.6308C696.23 54.6308 686.478 57.9493 679.523 64.5877C672.569 71.0753 669.092 79.7509 669.092 90.6138C669.092 97.8556 670.755 104.192 674.081 109.623C677.407 114.904 682.018 119.053 687.914 122.071C693.961 125.088 700.916 126.597 708.778 126.597C717.697 126.597 725.408 125.088 731.909 122.071C738.409 119.053 743.398 114.829 746.875 109.397C750.352 103.966 752.092 97.7048 752.092 90.6138C752.092 82.9192 750.277 76.4316 746.649 71.151C743.171 65.7198 738.183 61.6464 731.682 58.9307C725.332 56.0641 717.697 54.6309 708.778 54.6308Z" fill="#8694B5"/>
<path fill-rule="evenodd" clip-rule="evenodd" d="M921.75 31.7734C934.751 31.7734 945.183 34.4134 953.045 39.694C961.057 44.8237 966.877 51.8395 970.506 60.741C971.464 63.0925 972.295 65.5179 973 68.0167V34.2629H1002.48V146.739H975.042C975.042 146.739 974.815 145.305 974.361 142.439C974.059 139.421 973.757 135.65 973.454 131.124C973.152 126.597 973 122.146 973 117.771V110.215C972.925 110.47 972.852 110.726 972.774 110.982C970.657 117.771 967.407 124.107 963.023 129.991C958.639 135.724 952.893 140.402 945.787 144.023C938.682 147.493 930.14 149.228 920.162 149.228C908.975 149.228 898.77 146.814 889.548 141.986C880.477 137.007 873.22 130.142 867.778 121.392C862.487 112.49 859.84 102.231 859.84 90.6138C859.84 78.6948 862.562 68.3594 868.004 59.6088C873.447 50.8583 880.78 44.0698 890.002 39.2419C899.375 34.2631 909.957 31.7735 921.75 31.7734ZM929.687 54.6308C917.139 54.6308 907.387 57.9494 900.433 64.5877C893.479 71.0753 890.002 79.7509 890.002 90.6138C890.002 97.8556 891.665 104.192 894.991 109.623C898.317 114.904 902.928 119.053 908.824 122.071C914.871 125.088 921.826 126.597 929.687 126.597C938.607 126.597 946.317 125.088 952.818 122.071C959.319 119.053 964.308 114.829 967.785 109.397C971.262 103.966 973 97.7048 973 90.6138C973 82.9192 971.186 76.4316 967.558 71.151C964.081 65.7196 959.091 61.6464 952.591 58.9307C946.241 56.0642 938.607 54.6309 929.687 54.6308Z" fill="#8694B5"/>
<path fill-rule="evenodd" clip-rule="evenodd" d="M90.9365 0.316406C99.1003 0.31642 106.735 1.29663 113.841 3.25797C121.097 5.21931 127.371 8.23717 132.663 12.3107C138.105 16.3842 142.339 21.5891 145.362 27.9257C148.386 34.2624 149.897 41.8816 149.897 50.7831C149.897 59.5335 148.386 67.0017 145.362 73.1874C142.339 79.3731 138.105 84.4276 132.663 88.3503C127.372 92.1221 121.097 94.9134 113.841 96.7239C106.735 98.3835 99.1003 99.2134 90.9365 99.2134H30.1605V146.739H0V0.316406H90.9365ZM30.1605 75.2248H93.6576C101.67 75.2248 108.02 73.112 112.706 68.8876C117.393 64.5123 119.737 58.4776 119.737 50.7831C119.737 42.7869 117.393 36.677 112.706 32.4526C108.02 28.2281 101.67 26.1154 93.6576 26.1154H30.1605V75.2248Z" fill="#8694B5"/>
<path fill-rule="evenodd" clip-rule="evenodd" d="M566.913 0.316406C575.077 0.316438 582.712 1.29665 589.818 3.25797C597.074 5.21931 603.348 8.23721 608.64 12.3107C614.082 16.3842 618.315 21.5892 621.339 27.9257C624.363 34.2624 625.874 41.8816 625.874 50.7831C625.874 59.5335 624.363 67.0017 621.339 73.1874C618.315 79.373 614.082 84.4277 608.64 88.3503C603.348 92.1221 597.074 94.9134 589.818 96.7239C582.712 98.3835 575.077 99.2134 566.913 99.2134H506.137V146.739H475.977V0.316406H566.913ZM506.137 75.2248H569.634C577.647 75.2248 583.996 73.112 588.683 68.8876C593.37 64.5123 595.713 58.4776 595.713 50.7831C595.713 42.7869 593.37 36.677 588.683 32.4526C583.996 28.2282 577.647 26.1154 569.634 26.1154H506.137V75.2248Z" fill="#8694B5"/>
<path d="M837.734 146.739H808.253V0.31618H837.734V146.739Z" fill="#8694B5"/>
</g>
</svg>
