<svg width="280" height="45" viewBox="0 0 280 45" fill="none" xmlns="http://www.w3.org/2000/svg">
<path d="M273.108 26.9119H279.269C279.008 28.5797 278.307 30.0676 277.166 31.3757C276.058 32.6838 274.542 33.7139 272.619 34.466C270.695 35.2181 268.348 35.5942 265.577 35.5942C262.48 35.5942 259.742 35.1037 257.362 34.1226C254.982 33.1089 253.124 31.6536 251.787 29.757C250.451 27.8603 249.782 25.5711 249.782 22.8896C249.782 20.2081 250.434 17.919 251.738 16.0223C253.042 14.0929 254.852 12.6213 257.166 11.6075C259.513 10.5938 262.252 10.0869 265.381 10.0869C268.576 10.0869 271.233 10.5938 273.352 11.6075C275.471 12.6213 277.036 14.1583 278.047 16.2185C279.09 18.246 279.53 20.8458 279.367 24.0178H256.188C256.351 25.2605 256.808 26.3887 257.557 27.4024C258.34 28.4162 259.383 29.2174 260.687 29.806C262.024 30.3946 263.605 30.6889 265.43 30.6889C267.451 30.6889 269.13 30.3456 270.467 29.6588C271.836 28.9394 272.716 28.0238 273.108 26.9119ZM265.088 14.9431C262.741 14.9431 260.834 15.4663 259.367 16.5128C257.9 17.5265 256.954 18.7855 256.53 20.2898H273.059C272.896 18.6547 272.113 17.363 270.711 16.4147C269.342 15.4336 267.468 14.9431 265.088 14.9431Z" fill="#0A0F1C"/>
<path d="M247.262 25.3913C247.099 27.5169 246.414 29.3482 245.208 30.8852C244.035 32.4221 242.405 33.5994 240.318 34.4169C238.232 35.2018 235.754 35.5942 232.885 35.5942C229.886 35.5942 227.197 35.12 224.817 34.1717C222.47 33.1906 220.611 31.7681 219.242 29.9041C217.906 28.0074 217.237 25.6692 217.237 22.8896C217.237 20.11 217.906 17.7718 219.242 15.8751C220.611 13.9784 222.47 12.5395 224.817 11.5585C227.197 10.5774 229.886 10.0869 232.885 10.0869C235.754 10.0869 238.215 10.4957 240.269 11.3132C242.323 12.0981 243.937 13.2426 245.11 14.7469C246.317 16.2512 247.017 18.0661 247.213 20.1917H241.394C240.84 18.5566 239.813 17.2813 238.313 16.3656C236.814 15.45 235.004 14.9922 232.885 14.9922C231.19 14.9922 229.642 15.2865 228.24 15.8751C226.871 16.4637 225.762 17.3467 224.915 18.5239C224.1 19.6685 223.692 21.1237 223.692 22.8896C223.692 24.6228 224.1 26.078 224.915 27.2553C225.73 28.3998 226.838 29.2664 228.24 29.8551C229.642 30.411 231.19 30.6889 232.885 30.6889C235.167 30.6889 237.026 30.2311 238.46 29.3155C239.927 28.3998 240.921 27.0918 241.443 25.3913H247.262Z" fill="#0A0F1C"/>
<path d="M195.884 35.5451C193.472 35.5451 191.271 35.0219 189.283 33.9755C187.327 32.8963 185.762 31.4084 184.588 29.5117C183.447 27.5823 182.877 25.3586 182.877 22.8406C182.877 20.2571 183.464 18.0171 184.637 16.1204C185.811 14.2237 187.392 12.7521 189.381 11.7056C191.402 10.6265 193.684 10.0869 196.227 10.0869C199.03 10.0869 201.28 10.6592 202.975 11.8037C204.703 12.9156 205.958 14.4362 206.74 16.3656C207.523 18.295 207.914 20.4533 207.914 22.8406C207.914 24.2794 207.686 25.751 207.229 27.2553C206.773 28.7269 206.072 30.1003 205.127 31.3757C204.181 32.6183 202.942 33.6321 201.41 34.4169C199.878 35.1691 198.036 35.5451 195.884 35.5451ZM197.938 30.6399C199.862 30.6399 201.524 30.3129 202.926 29.6589C204.328 29.0048 205.404 28.0892 206.153 26.9119C206.903 25.7347 207.278 24.3775 207.278 22.8406C207.278 21.1728 206.887 19.7666 206.105 18.622C205.355 17.4448 204.279 16.5618 202.877 15.9732C201.508 15.3519 199.862 15.0412 197.938 15.0412C195.232 15.0412 193.13 15.7606 191.63 17.1995C190.13 18.6057 189.381 20.486 189.381 22.8406C189.381 24.4102 189.739 25.7837 190.456 26.961C191.174 28.1055 192.168 29.0048 193.439 29.6589C194.743 30.3129 196.243 30.6399 197.938 30.6399ZM207.278 10.6265H213.635V35.0056H207.718C207.718 35.0056 207.669 34.6949 207.572 34.0736C207.506 33.4195 207.441 32.602 207.376 31.6209C207.311 30.6399 207.278 29.6752 207.278 28.7269V10.6265Z" fill="#0A0F1C"/>
<path d="M172.242 0.81604H178.599V35.0056H172.242V0.81604Z" fill="#0A0F1C"/>
<path d="M149.227 35.5451C146.815 35.5451 144.614 35.0219 142.626 33.9755C140.67 32.8963 139.105 31.4084 137.931 29.5117C136.79 27.5823 136.22 25.3586 136.22 22.8406C136.22 20.2571 136.807 18.0171 137.98 16.1204C139.154 14.2237 140.735 12.7521 142.723 11.7056C144.745 10.6265 147.027 10.0869 149.569 10.0869C152.373 10.0869 154.622 10.6592 156.318 11.8037C158.045 12.9156 159.301 14.4362 160.083 16.3656C160.865 18.295 161.257 20.4533 161.257 22.8406C161.257 24.2794 161.028 25.751 160.572 27.2553C160.116 28.7269 159.415 30.1003 158.469 31.3757C157.524 32.6183 156.285 33.6321 154.753 34.4169C153.221 35.1691 151.379 35.5451 149.227 35.5451ZM151.281 30.6399C153.204 30.6399 154.867 30.3129 156.269 29.6589C157.671 29.0048 158.746 28.0892 159.496 26.9119C160.246 25.7347 160.621 24.3775 160.621 22.8406C160.621 21.1728 160.23 19.7666 159.447 18.622C158.698 17.4448 157.622 16.5618 156.22 15.9732C154.851 15.3519 153.204 15.0412 151.281 15.0412C148.575 15.0412 146.472 15.7606 144.973 17.1995C143.473 18.6057 142.723 20.486 142.723 22.8406C142.723 24.4102 143.082 25.7837 143.799 26.961C144.516 28.1055 145.511 29.0048 146.782 29.6589C148.086 30.3129 149.586 30.6399 151.281 30.6399ZM160.621 10.6265H166.978V35.0056H161.061C161.061 35.0056 161.012 34.6949 160.914 34.0736C160.849 33.4195 160.784 32.602 160.719 31.6209C160.654 30.6399 160.621 29.6752 160.621 28.7269V10.6265Z" fill="#0A0F1C"/>
<path d="M107.291 24.7046V19.505H121.766C123.493 19.505 124.863 19.0472 125.873 18.1316C126.884 17.1832 127.389 15.8752 127.389 14.2074C127.389 12.4742 126.884 11.1498 125.873 10.2341C124.863 9.31848 123.493 8.86066 121.766 8.86066H108.074V35.0056H101.57V3.26868H121.179C122.939 3.26868 124.585 3.48124 126.118 3.90636C127.683 4.33148 129.035 4.98551 130.176 5.86846C131.35 6.7514 132.263 7.87961 132.915 9.25308C133.567 10.6265 133.893 12.278 133.893 14.2074C133.893 16.1041 133.567 17.7228 132.915 19.0636C132.263 20.4043 131.35 21.4998 130.176 22.3501C129.035 23.1676 127.683 23.7726 126.118 24.165C124.585 24.5247 122.939 24.7046 121.179 24.7046H107.291Z" fill="#0A0F1C"/>
<path d="M68.3828 10.6265H75.131L85.6446 34.0245L80.1677 35.0055L68.3828 10.6265ZM98.1141 10.6265L81.2924 44.816H74.6909L81.8793 31.3757L91.317 10.6265H98.1141Z" fill="#0A0F1C"/>
<path d="M48.0568 35.5451C45.6443 35.5451 43.4438 35.0219 41.4552 33.9755C39.4992 32.8963 37.9344 31.4084 36.7608 29.5117C35.6198 27.5823 35.0493 25.3586 35.0493 22.8406C35.0493 20.2571 35.6361 18.0171 36.8097 16.1204C37.9833 14.2237 39.5644 12.7521 41.553 11.7056C43.5742 10.6265 45.8562 10.0869 48.3991 10.0869C51.2027 10.0869 53.4521 10.6592 55.1473 11.8037C56.8751 12.9156 58.1302 14.4362 58.9126 16.3656C59.695 18.295 60.0862 20.4533 60.0862 22.8406C60.0862 24.2794 59.858 25.751 59.4016 27.2553C58.9452 28.7269 58.2443 30.1003 57.2989 31.3757C56.3535 32.6183 55.1147 33.6321 53.5825 34.4169C52.0503 35.1691 50.2084 35.5451 48.0568 35.5451ZM50.1106 30.6399C52.034 30.6399 53.6966 30.3129 55.0984 29.6589C56.5002 29.0048 57.576 28.0892 58.3258 26.9119C59.0756 25.7347 59.4505 24.3775 59.4505 22.8406C59.4505 21.1728 59.0593 19.7666 58.2769 18.622C57.5271 17.4448 56.4513 16.5618 55.0495 15.9732C53.6803 15.3519 52.034 15.0412 50.1106 15.0412C47.4048 15.0412 45.302 15.7606 43.8024 17.1995C42.3028 18.6057 41.553 20.486 41.553 22.8406C41.553 24.4102 41.9116 25.7837 42.6288 26.961C43.346 28.1055 44.3403 29.0048 45.6117 29.6589C46.9158 30.3129 48.4154 30.6399 50.1106 30.6399ZM59.4505 10.6265H65.8075V35.0056H59.8906C59.8906 35.0056 59.8417 34.6949 59.7439 34.0736C59.6787 33.4195 59.6135 32.602 59.5483 31.6209C59.4831 30.6399 59.4505 29.6752 59.4505 28.7269V10.6265Z" fill="#0A0F1C"/>
<path d="M6.12122 24.7046V19.505H20.5957C22.3235 19.505 23.6927 19.0472 24.7033 18.1316C25.7139 17.1832 26.2192 15.8752 26.2192 14.2074C26.2192 12.4742 25.7139 11.1498 24.7033 10.2341C23.6927 9.31848 22.3235 8.86066 20.5957 8.86066H6.90362V35.0056H0.399902V3.26868H20.0089C21.7693 3.26868 23.4156 3.48124 24.9478 3.90636C26.5126 4.33148 27.8655 4.98551 29.0065 5.86846C30.1801 6.7514 31.0929 7.87961 31.7449 9.25308C32.3969 10.6265 32.7229 12.278 32.7229 14.2074C32.7229 16.1041 32.3969 17.7228 31.7449 19.0636C31.0929 20.4043 30.1801 21.4998 29.0065 22.3501C27.8655 23.1676 26.5126 23.7726 24.9478 24.165C23.4156 24.5247 21.7693 24.7046 20.0089 24.7046H6.12122Z" fill="#0A0F1C"/>
</svg>
