<svg width="280" height="45" viewBox="0 0 280 45" fill="none" xmlns="http://www.w3.org/2000/svg">
<path d="M273.108 26.9119H279.269C279.008 28.5797 278.307 30.0676 277.166 31.3756C276.058 32.6837 274.542 33.7138 272.619 34.4659C270.695 35.2181 268.348 35.5941 265.577 35.5941C262.48 35.5941 259.742 35.1036 257.362 34.1226C254.982 33.1088 253.124 31.6536 251.787 29.7569C250.451 27.8602 249.782 25.5711 249.782 22.8896C249.782 20.2081 250.434 17.9189 251.738 16.0222C253.042 14.0929 254.852 12.6213 257.166 11.6075C259.513 10.5938 262.252 10.0869 265.381 10.0869C268.576 10.0869 271.233 10.5938 273.352 11.6075C275.471 12.6213 277.036 14.1583 278.047 16.2185C279.09 18.246 279.53 20.8457 279.367 24.0178H256.188C256.351 25.2604 256.808 26.3887 257.557 27.4024C258.34 28.4162 259.383 29.2173 260.687 29.806C262.024 30.3946 263.605 30.6889 265.43 30.6889C267.451 30.6889 269.13 30.3455 270.467 29.6588C271.836 28.9394 272.716 28.0237 273.108 26.9119ZM265.088 14.9431C262.741 14.9431 260.834 15.4663 259.367 16.5128C257.9 17.5265 256.954 18.7855 256.53 20.2898H273.059C272.896 18.6547 272.113 17.363 270.711 16.4147C269.342 15.4336 267.468 14.9431 265.088 14.9431Z" fill="#E7EBF4"/>
<path d="M247.262 25.3913C247.099 27.5169 246.414 29.3481 245.208 30.8851C244.035 32.4221 242.405 33.5994 240.318 34.4169C238.232 35.2017 235.754 35.5941 232.885 35.5941C229.886 35.5941 227.197 35.12 224.817 34.1716C222.47 33.1906 220.611 31.7681 219.242 29.9041C217.906 28.0074 217.237 25.6692 217.237 22.8896C217.237 20.1099 217.906 17.7718 219.242 15.8751C220.611 13.9784 222.47 12.5395 224.817 11.5585C227.197 10.5774 229.886 10.0869 232.885 10.0869C235.754 10.0869 238.215 10.4957 240.269 11.3132C242.323 12.0981 243.937 13.2426 245.11 14.7469C246.317 16.2512 247.017 18.0661 247.213 20.1917H241.394C240.84 18.5566 239.813 17.2813 238.313 16.3656C236.814 15.45 235.004 14.9921 232.885 14.9921C231.19 14.9921 229.642 15.2865 228.24 15.8751C226.871 16.4637 225.762 17.3467 224.915 18.5239C224.1 19.6685 223.692 21.1237 223.692 22.8896C223.692 24.6228 224.1 26.078 224.915 27.2552C225.73 28.3998 226.838 29.2664 228.24 29.855C229.642 30.4109 231.19 30.6889 232.885 30.6889C235.167 30.6889 237.026 30.2311 238.46 29.3154C239.927 28.3998 240.921 27.0917 241.443 25.3913H247.262Z" fill="#E7EBF4"/>
<path d="M195.885 35.5451C193.472 35.5451 191.272 35.0219 189.283 33.9754C187.327 32.8963 185.763 31.4083 184.589 29.5117C183.448 27.5823 182.877 25.3586 182.877 22.8405C182.877 20.2571 183.464 18.017 184.638 16.1204C185.811 14.2237 187.393 12.7521 189.381 11.7056C191.402 10.6265 193.684 10.0869 196.227 10.0869C199.031 10.0869 201.28 10.6592 202.975 11.8037C204.703 12.9156 205.958 14.4362 206.741 16.3656C207.523 18.295 207.914 20.4533 207.914 22.8405C207.914 24.2794 207.686 25.751 207.23 27.2552C206.773 28.7268 206.072 30.1003 205.127 31.3756C204.182 32.6183 202.943 33.6321 201.411 34.4169C199.878 35.169 198.036 35.5451 195.885 35.5451ZM197.939 30.6399C199.862 30.6399 201.525 30.3128 202.926 29.6588C204.328 29.0048 205.404 28.0891 206.154 26.9119C206.904 25.7346 207.279 24.3775 207.279 22.8405C207.279 21.1728 206.887 19.7666 206.105 18.622C205.355 17.4448 204.279 16.5618 202.878 15.9732C201.508 15.3519 199.862 15.0412 197.939 15.0412C195.233 15.0412 193.13 15.7606 191.631 17.1995C190.131 18.6057 189.381 20.486 189.381 22.8405C189.381 24.4102 189.74 25.7837 190.457 26.9609C191.174 28.1055 192.168 29.0048 193.44 29.6588C194.744 30.3128 196.243 30.6399 197.939 30.6399ZM207.279 10.6265H213.636V35.0055H207.719C207.719 35.0055 207.67 34.6949 207.572 34.0735C207.507 33.4195 207.442 32.602 207.376 31.6209C207.311 30.6399 207.279 29.6752 207.279 28.7268V10.6265Z" fill="#E7EBF4"/>
<path d="M172.242 0.815979H178.599V35.0055H172.242V0.815979Z" fill="#E7EBF4"/>
<path d="M149.227 35.5451C146.814 35.5451 144.614 35.0219 142.625 33.9754C140.669 32.8963 139.104 31.4083 137.931 29.5117C136.79 27.5823 136.219 25.3586 136.219 22.8405C136.219 20.2571 136.806 18.017 137.98 16.1204C139.153 14.2237 140.734 12.7521 142.723 11.7056C144.744 10.6265 147.026 10.0869 149.569 10.0869C152.373 10.0869 154.622 10.6592 156.317 11.8037C158.045 12.9156 159.3 14.4362 160.083 16.3656C160.865 18.295 161.256 20.4533 161.256 22.8405C161.256 24.2794 161.028 25.751 160.572 27.2552C160.115 28.7268 159.414 30.1003 158.469 31.3756C157.523 32.6183 156.285 33.6321 154.752 34.4169C153.22 35.169 151.378 35.5451 149.227 35.5451ZM151.28 30.6399C153.204 30.6399 154.866 30.3128 156.268 29.6588C157.67 29.0048 158.746 28.0891 159.496 26.9119C160.246 25.7346 160.62 24.3775 160.62 22.8405C160.62 21.1728 160.229 19.7666 159.447 18.622C158.697 17.4448 157.621 16.5618 156.219 15.9732C154.85 15.3519 153.204 15.0412 151.28 15.0412C148.575 15.0412 146.472 15.7606 144.972 17.1995C143.473 18.6057 142.723 20.486 142.723 22.8405C142.723 24.4102 143.082 25.7837 143.799 26.9609C144.516 28.1055 145.51 29.0048 146.782 29.6588C148.086 30.3128 149.585 30.6399 151.28 30.6399ZM160.62 10.6265H166.977V35.0055H161.061C161.061 35.0055 161.012 34.6949 160.914 34.0735C160.849 33.4195 160.783 32.602 160.718 31.6209C160.653 30.6399 160.62 29.6752 160.62 28.7268V10.6265Z" fill="#E7EBF4"/>
<path d="M107.291 24.7045V19.5049H121.766C123.493 19.5049 124.863 19.0471 125.873 18.1315C126.884 17.1831 127.389 15.8751 127.389 14.2073C127.389 12.4741 126.884 11.1497 125.873 10.2341C124.863 9.31841 123.493 8.86058 121.766 8.86058H108.074V35.0055H101.57V3.26862H121.179C122.939 3.26862 124.586 3.48118 126.118 3.9063C127.683 4.33142 129.035 4.98545 130.176 5.86839C131.35 6.75133 132.263 7.87954 132.915 9.253C133.567 10.6265 133.893 12.2779 133.893 14.2073C133.893 16.104 133.567 17.7227 132.915 19.0635C132.263 20.4042 131.35 21.4997 130.176 22.35C129.035 23.1675 127.683 23.7725 126.118 24.1649C124.586 24.5246 122.939 24.7045 121.179 24.7045H107.291Z" fill="#E7EBF4"/>
<path d="M68.3828 10.6265H75.131L85.6446 34.0244L80.1677 35.0055L68.3828 10.6265ZM98.1141 10.6265L81.2924 44.816H74.6909L81.8793 31.3756L91.317 10.6265H98.1141Z" fill="#E7EBF4"/>
<path d="M48.0568 35.5451C45.6443 35.5451 43.4438 35.0219 41.4552 33.9754C39.4992 32.8963 37.9344 31.4083 36.7608 29.5117C35.6198 27.5823 35.0493 25.3586 35.0493 22.8405C35.0493 20.2571 35.6361 18.017 36.8097 16.1204C37.9833 14.2237 39.5644 12.7521 41.553 11.7056C43.5742 10.6265 45.8562 10.0869 48.3991 10.0869C51.2027 10.0869 53.4521 10.6592 55.1473 11.8037C56.8751 12.9156 58.1302 14.4362 58.9126 16.3656C59.695 18.295 60.0862 20.4533 60.0862 22.8405C60.0862 24.2794 59.858 25.751 59.4016 27.2552C58.9452 28.7268 58.2443 30.1003 57.2989 31.3756C56.3535 32.6183 55.1147 33.6321 53.5825 34.4169C52.0503 35.169 50.2084 35.5451 48.0568 35.5451ZM50.1106 30.6399C52.034 30.6399 53.6966 30.3128 55.0984 29.6588C56.5002 29.0048 57.576 28.0891 58.3258 26.9119C59.0756 25.7346 59.4505 24.3775 59.4505 22.8405C59.4505 21.1728 59.0593 19.7666 58.2769 18.622C57.5271 17.4448 56.4513 16.5618 55.0495 15.9732C53.6803 15.3519 52.034 15.0412 50.1106 15.0412C47.4048 15.0412 45.302 15.7606 43.8024 17.1995C42.3028 18.6057 41.553 20.486 41.553 22.8405C41.553 24.4102 41.9116 25.7837 42.6288 26.9609C43.346 28.1055 44.3403 29.0048 45.6117 29.6588C46.9158 30.3128 48.4154 30.6399 50.1106 30.6399ZM59.4505 10.6265H65.8075V35.0055H59.8906C59.8906 35.0055 59.8417 34.6949 59.7439 34.0735C59.6787 33.4195 59.6135 32.602 59.5483 31.6209C59.4831 30.6399 59.4505 29.6752 59.4505 28.7268V10.6265Z" fill="#E7EBF4"/>
<path d="M6.12122 24.7045V19.5049H20.5957C22.3235 19.5049 23.6927 19.0471 24.7033 18.1315C25.7139 17.1831 26.2192 15.8751 26.2192 14.2073C26.2192 12.4741 25.7139 11.1497 24.7033 10.2341C23.6927 9.31841 22.3235 8.86058 20.5957 8.86058H6.90362V35.0055H0.399902V3.26862H20.0089C21.7693 3.26862 23.4156 3.48118 24.9478 3.9063C26.5126 4.33142 27.8655 4.98545 29.0065 5.86839C30.1801 6.75133 31.0929 7.87954 31.7449 9.253C32.3969 10.6265 32.7229 12.2779 32.7229 14.2073C32.7229 16.104 32.3969 17.7227 31.7449 19.0635C31.0929 20.4042 30.1801 21.4997 29.0065 22.35C27.8655 23.1675 26.5126 23.7725 24.9478 24.1649C23.4156 24.5246 21.7693 24.7045 20.0089 24.7045H6.12122Z" fill="#E7EBF4"/>
</svg>
