<svg width="72" height="72" viewBox="0 0 72 72" fill="none" xmlns="http://www.w3.org/2000/svg">
<path d="M45 51H33M24 51H18M6.03314 30C6 31.7311 6 33.7094 6 36C6 44.4008 6 48.6012 7.6349 51.8099C9.073 54.6323 11.3677 56.927 14.1901 58.3651C17.3988 60 21.5992 60 30 60H42C50.4008 60 54.6012 60 57.8099 58.3651C60.6323 56.927 62.927 54.6323 64.3651 51.8099C66 48.6012 66 44.4008 66 36C66 33.7094 66 31.7311 65.9669 30M6.03314 30C6.12155 25.3823 6.44578 22.5239 7.6349 20.1901C9.073 17.3677 11.3677 15.073 14.1901 13.6349C17.3988 12 21.5992 12 30 12H42C50.4008 12 54.6012 12 57.8099 13.6349C60.6323 15.073 62.927 17.3677 64.3651 20.1901C65.5542 22.5239 65.8785 25.3823 65.9669 30M6.03314 30H65.9669" stroke="#8694B5" stroke-width="4.5" stroke-linecap="round"/>
</svg>
