<svg width="48" height="48" viewBox="0 0 48 48" fill="none" xmlns="http://www.w3.org/2000/svg">
<path fill-rule="evenodd" clip-rule="evenodd" d="M16.2907 6.54154C15.6815 6.49997 14.9394 6.49999 14.0505 6.5H13.9495C13.0606 6.49999 12.3185 6.49997 11.7093 6.54154C11.0751 6.58481 10.476 6.6781 9.89524 6.91866C8.54759 7.47688 7.47688 8.54759 6.91866 9.89524C6.6781 10.476 6.58481 11.0751 6.54154 11.7093C6.49997 12.3185 6.49999 13.0606 6.5 13.9495V14.0505C6.49999 14.9394 6.49997 15.6815 6.54154 16.2907C6.58481 16.9249 6.6781 17.524 6.91866 18.1048C7.47688 19.4524 8.54759 20.5231 9.89524 21.0813C10.476 21.3219 11.0751 21.4152 11.7093 21.4585C12.3185 21.5 13.0606 21.5 13.9495 21.5H14.0505C14.9394 21.5 15.6815 21.5 16.2907 21.4585C16.9249 21.4152 17.524 21.3219 18.1048 21.0813C19.4524 20.5231 20.5231 19.4524 21.0813 18.1048C21.3219 17.524 21.4152 16.9249 21.4585 16.2907C21.5 15.6815 21.5 14.9394 21.5 14.0505V13.9495C21.5 13.0606 21.5 12.3185 21.4585 11.7093C21.4152 11.0751 21.3219 10.476 21.0813 9.89524C20.5231 8.54759 19.4524 7.47688 18.1048 6.91866C17.524 6.6781 16.9249 6.58481 16.2907 6.54154ZM11.0433 9.6903C11.1976 9.62639 11.432 9.56743 11.9135 9.53458C12.4084 9.50081 13.0476 9.5 14 9.5C14.9524 9.5 15.5916 9.50081 16.0865 9.53458C16.568 9.56743 16.8024 9.62639 16.9567 9.6903C17.5693 9.94404 18.056 10.4307 18.3097 11.0433C18.3736 11.1976 18.4326 11.432 18.4654 11.9135C18.4992 12.4084 18.5 13.0476 18.5 14C18.5 14.9524 18.4992 15.5916 18.4654 16.0865C18.4326 16.568 18.3736 16.8024 18.3097 16.9567C18.056 17.5693 17.5693 18.056 16.9567 18.3097C16.8024 18.3736 16.568 18.4326 16.0865 18.4654C15.5916 18.4992 14.9524 18.5 14 18.5C13.0476 18.5 12.4084 18.4992 11.9135 18.4654C11.432 18.4326 11.1976 18.3736 11.0433 18.3097C10.4307 18.056 9.94404 17.5693 9.6903 16.9567C9.62639 16.8024 9.56743 16.568 9.53458 16.0865C9.50081 15.5916 9.5 14.9524 9.5 14C9.5 13.0476 9.50081 12.4084 9.53458 11.9135C9.56743 11.432 9.62639 11.1976 9.6903 11.0433C9.94404 10.4307 10.4307 9.94404 11.0433 9.6903Z" fill="#0A0F1C"/>
<path fill-rule="evenodd" clip-rule="evenodd" d="M36.2907 6.54154C35.6815 6.49997 34.9394 6.49999 34.0505 6.5H33.9495C33.0606 6.49999 32.3185 6.49997 31.7093 6.54154C31.0751 6.58481 30.476 6.6781 29.8952 6.91866C28.5476 7.47688 27.4769 8.54759 26.9187 9.89524C26.6781 10.476 26.5848 11.0751 26.5415 11.7093C26.5 12.3185 26.5 13.0606 26.5 13.9495V14.0505C26.5 14.9394 26.5 15.6815 26.5415 16.2907C26.5848 16.9249 26.6781 17.524 26.9187 18.1048C27.4769 19.4524 28.5476 20.5231 29.8952 21.0813C30.476 21.3219 31.0751 21.4152 31.7093 21.4585C32.3185 21.5 33.0606 21.5 33.9495 21.5H34.0505C34.9394 21.5 35.6815 21.5 36.2907 21.4585C36.9249 21.4152 37.524 21.3219 38.1048 21.0813C39.4524 20.5231 40.5231 19.4524 41.0813 18.1048C41.3219 17.524 41.4152 16.9249 41.4585 16.2907C41.5 15.6815 41.5 14.9394 41.5 14.0505V13.9495C41.5 13.0606 41.5 12.3185 41.4585 11.7093C41.4152 11.0751 41.3219 10.476 41.0813 9.89524C40.5231 8.54759 39.4524 7.47688 38.1048 6.91866C37.524 6.6781 36.9249 6.58481 36.2907 6.54154ZM31.0433 9.6903C31.1976 9.62639 31.432 9.56743 31.9135 9.53458C32.4084 9.50081 33.0476 9.5 34 9.5C34.9524 9.5 35.5916 9.50081 36.0865 9.53458C36.568 9.56743 36.8024 9.62639 36.9567 9.6903C37.5693 9.94404 38.056 10.4307 38.3097 11.0433C38.3736 11.1976 38.4326 11.432 38.4654 11.9135C38.4992 12.4084 38.5 13.0476 38.5 14C38.5 14.9524 38.4992 15.5916 38.4654 16.0865C38.4326 16.568 38.3736 16.8024 38.3097 16.9567C38.056 17.5693 37.5693 18.056 36.9567 18.3097C36.8024 18.3736 36.568 18.4326 36.0865 18.4654C35.5916 18.4992 34.9524 18.5 34 18.5C33.0476 18.5 32.4084 18.4992 31.9135 18.4654C31.432 18.4326 31.1976 18.3736 31.0433 18.3097C30.4307 18.056 29.944 17.5693 29.6903 16.9567C29.6264 16.8024 29.5674 16.568 29.5346 16.0865C29.5008 15.5916 29.5 14.9524 29.5 14C29.5 13.0476 29.5008 12.4084 29.5346 11.9135C29.5674 11.432 29.6264 11.1976 29.6903 11.0433C29.944 10.4307 30.4307 9.94404 31.0433 9.6903Z" fill="#0A0F1C"/>
<path fill-rule="evenodd" clip-rule="evenodd" d="M16.2907 26.5415C15.6815 26.5 14.9394 26.5 14.0505 26.5H13.9495C13.0606 26.5 12.3185 26.5 11.7093 26.5415C11.0751 26.5848 10.476 26.6781 9.89524 26.9187C8.54759 27.4769 7.47688 28.5476 6.91866 29.8952C6.6781 30.476 6.58481 31.0751 6.54154 31.7093C6.49997 32.3185 6.49999 33.0606 6.5 33.9495V34.0505C6.49999 34.9394 6.49997 35.6815 6.54154 36.2907C6.58481 36.9249 6.6781 37.524 6.91866 38.1048C7.47688 39.4524 8.54759 40.5231 9.89524 41.0813C10.476 41.3219 11.0751 41.4152 11.7093 41.4585C12.3185 41.5 13.0606 41.5 13.9495 41.5H14.0505C14.9394 41.5 15.6815 41.5 16.2907 41.4585C16.9249 41.4152 17.524 41.3219 18.1048 41.0813C19.4524 40.5231 20.5231 39.4524 21.0813 38.1048C21.3219 37.524 21.4152 36.9249 21.4585 36.2907C21.5 35.6815 21.5 34.9394 21.5 34.0505V33.9495C21.5 33.0606 21.5 32.3185 21.4585 31.7093C21.4152 31.0751 21.3219 30.476 21.0813 29.8952C20.5231 28.5476 19.4524 27.4769 18.1048 26.9187C17.524 26.6781 16.9249 26.5848 16.2907 26.5415ZM11.0433 29.6903C11.1976 29.6264 11.432 29.5674 11.9135 29.5346C12.4084 29.5008 13.0476 29.5 14 29.5C14.9524 29.5 15.5916 29.5008 16.0865 29.5346C16.568 29.5674 16.8024 29.6264 16.9567 29.6903C17.5693 29.944 18.056 30.4307 18.3097 31.0433C18.3736 31.1976 18.4326 31.432 18.4654 31.9135C18.4992 32.4084 18.5 33.0476 18.5 34C18.5 34.9524 18.4992 35.5916 18.4654 36.0865C18.4326 36.568 18.3736 36.8024 18.3097 36.9567C18.056 37.5693 17.5693 38.056 16.9567 38.3097C16.8024 38.3736 16.568 38.4326 16.0865 38.4654C15.5916 38.4992 14.9524 38.5 14 38.5C13.0476 38.5 12.4084 38.4992 11.9135 38.4654C11.432 38.4326 11.1976 38.3736 11.0433 38.3097C10.4307 38.056 9.94404 37.5693 9.6903 36.9567C9.62639 36.8024 9.56743 36.568 9.53458 36.0865C9.50081 35.5916 9.5 34.9524 9.5 34C9.5 33.0476 9.50081 32.4084 9.53458 31.9135C9.56743 31.432 9.62639 31.1976 9.6903 31.0433C9.94404 30.4307 10.4307 29.944 11.0433 29.6903Z" fill="#0A0F1C"/>
<path fill-rule="evenodd" clip-rule="evenodd" d="M36.2907 26.5415C35.6815 26.5 34.9394 26.5 34.0505 26.5H33.9495C33.0606 26.5 32.3185 26.5 31.7093 26.5415C31.0751 26.5848 30.476 26.6781 29.8952 26.9187C28.5476 27.4769 27.4769 28.5476 26.9187 29.8952C26.6781 30.476 26.5848 31.0751 26.5415 31.7093C26.5 32.3185 26.5 33.0606 26.5 33.9495V34.0505C26.5 34.9394 26.5 35.6815 26.5415 36.2907C26.5848 36.9249 26.6781 37.524 26.9187 38.1048C27.4769 39.4524 28.5476 40.5231 29.8952 41.0813C30.476 41.3219 31.0751 41.4152 31.7093 41.4585C32.3185 41.5 33.0606 41.5 33.9495 41.5H34.0505C34.9394 41.5 35.6815 41.5 36.2907 41.4585C36.9249 41.4152 37.524 41.3219 38.1048 41.0813C39.4524 40.5231 40.5231 39.4524 41.0813 38.1048C41.3219 37.524 41.4152 36.9249 41.4585 36.2907C41.5 35.6815 41.5 34.9394 41.5 34.0505V33.9495C41.5 33.0606 41.5 32.3185 41.4585 31.7093C41.4152 31.0751 41.3219 30.476 41.0813 29.8952C40.5231 28.5476 39.4524 27.4769 38.1048 26.9187C37.524 26.6781 36.9249 26.5848 36.2907 26.5415ZM31.0433 29.6903C31.1976 29.6264 31.432 29.5674 31.9135 29.5346C32.4084 29.5008 33.0476 29.5 34 29.5C34.9524 29.5 35.5916 29.5008 36.0865 29.5346C36.568 29.5674 36.8024 29.6264 36.9567 29.6903C37.5693 29.944 38.056 30.4307 38.3097 31.0433C38.3736 31.1976 38.4326 31.432 38.4654 31.9135C38.4992 32.4084 38.5 33.0476 38.5 34C38.5 34.9524 38.4992 35.5916 38.4654 36.0865C38.4326 36.568 38.3736 36.8024 38.3097 36.9567C38.056 37.5693 37.5693 38.056 36.9567 38.3097C36.8024 38.3736 36.568 38.4326 36.0865 38.4654C35.5916 38.4992 34.9524 38.5 34 38.5C33.0476 38.5 32.4084 38.4992 31.9135 38.4654C31.432 38.4326 31.1976 38.3736 31.0433 38.3097C30.4307 38.056 29.944 37.5693 29.6903 36.9567C29.6264 36.8024 29.5674 36.568 29.5346 36.0865C29.5008 35.5916 29.5 34.9524 29.5 34C29.5 33.0476 29.5008 32.4084 29.5346 31.9135C29.5674 31.432 29.6264 31.1976 29.6903 31.0433C29.944 30.4307 30.4307 29.944 31.0433 29.6903Z" fill="#0A0F1C"/>
</svg>
