<svg width="145" height="144" viewBox="0 0 145 144" fill="none" xmlns="http://www.w3.org/2000/svg">
<rect x="30.5" y="28" width="80" height="84" fill="#0A0F1C"/>
<path fill-rule="evenodd" clip-rule="evenodd" d="M72.7716 13.5C83.7907 13.5 92.4283 13.4999 99.2811 14.2424C106.274 15.0001 111.941 16.574 116.779 20.0889C119.707 22.2169 122.283 24.7926 124.411 27.7214C127.926 32.5594 129.5 38.2257 130.258 45.2189C131 52.0716 131 60.7095 131 71.7284V72.2721C131 83.2911 131 91.9285 130.258 98.7812C129.5 105.774 127.926 111.441 124.411 116.279C122.283 119.208 119.707 121.783 116.779 123.911C111.941 127.426 106.274 129 99.2811 129.758C92.4285 130.5 83.7906 130.5 72.7716 130.5H72.2279C61.209 130.5 52.5715 130.5 45.7189 129.758C38.7256 129 33.0594 127.426 28.2214 123.911C25.2925 121.783 22.7169 119.208 20.5889 116.279C17.0739 111.441 15.5 105.774 14.7424 98.7812C13.9999 91.9284 14 83.2908 14 72.2716V71.7285C14 60.7093 13.9999 52.0717 14.7424 45.2189C15.5 38.2257 17.0739 32.5594 20.5889 27.7214C22.7169 24.7926 25.2925 22.2169 28.2214 20.0889C33.0594 16.574 38.7256 15.0001 45.7189 14.2424C52.5717 13.4999 61.2093 13.5 72.2284 13.5H72.7716ZM77 42C77 39.5147 74.9853 37.5 72.5 37.5C70.0147 37.5 68 39.5147 68 42V102C68 104.485 70.0147 106.5 72.5 106.5C74.9853 106.5 77 104.485 77 102V42ZM101 66C101 63.5148 98.9853 61.5 96.5 61.5C94.0147 61.5 92 63.5148 92 66V102C92 104.485 94.0147 106.5 96.5 106.5C98.9853 106.5 101 104.485 101 102V66ZM53 78C53 75.5148 50.9853 73.5 48.5 73.5C46.0147 73.5 44 75.5148 44 78V102C44 104.485 46.0147 106.5 48.5 106.5C50.9853 106.5 53 104.485 53 102V78Z" fill="#A7C4FF"/>
</svg>
