<svg width="48" height="48" viewBox="0 0 48 48" fill="none" xmlns="http://www.w3.org/2000/svg">
<path d="M39.0607 11.0607C39.6465 10.4749 39.6465 9.52513 39.0607 8.93934C38.4749 8.35355 37.5252 8.35355 36.9394 8.93934L24 21.8787L11.0607 8.93935C10.4749 8.35356 9.52513 8.35356 8.93934 8.93935C8.35355 9.52513 8.35355 10.4749 8.93934 11.0607L21.8787 24L8.93939 36.9393C8.35361 37.5251 8.35361 38.4749 8.93939 39.0607C9.52518 39.6464 10.4749 39.6464 11.0607 39.0607L24 26.1214L36.9393 39.0607C37.5251 39.6465 38.4749 39.6465 39.0607 39.0607C39.6464 38.4749 39.6464 37.5251 39.0607 36.9393L26.1213 24L39.0607 11.0607Z" fill="#0A0F1C"/>
</svg>
