<svg width="73" height="72" viewBox="0 0 73 72" fill="none" xmlns="http://www.w3.org/2000/svg">
<path fill-rule="evenodd" clip-rule="evenodd" d="M38.9167 15C38.9167 13.7574 37.9093 12.75 36.6667 12.75C35.424 12.75 34.4167 13.7574 34.4167 15V15.9242C33.4364 16.1701 32.4744 16.5544 31.5585 17.0832C23.3929 21.7976 24.4308 33.8967 33.28 37.1516L34.4168 37.5698L34.4167 51.6584C32.812 51.2058 31.3783 50.151 30.4807 48.5963L29.354 46.6448C28.7326 45.5686 27.3566 45.1999 26.2804 45.8212C25.2042 46.4425 24.8355 47.8186 25.4568 48.8948L26.5835 50.8463C28.3189 53.8521 31.2446 55.7389 34.4167 56.2605L34.4167 57C34.4167 58.2426 35.424 59.25 36.6667 59.25C37.9093 59.25 38.9167 58.2427 38.9167 57L38.9167 56.0759C39.8971 55.8299 40.8591 55.4457 41.7751 54.9168C49.9407 50.2024 48.9029 38.1033 40.0537 34.8484L38.9168 34.4302L38.9167 20.3416C40.5215 20.7941 41.9553 21.8489 42.853 23.4037L43.9797 25.3552C44.601 26.4314 45.9771 26.8001 47.0532 26.1788C48.1294 25.5575 48.4981 24.1814 47.8768 23.1052L46.7501 21.1537C45.0146 18.1478 42.0888 16.261 38.9167 15.7395V15ZM33.8085 20.9803C34.0082 20.865 34.2112 20.7613 34.4167 20.6691L34.4168 32.76C29.5356 30.6046 29.0783 23.7113 33.8085 20.9803ZM38.9167 51.331L38.9168 39.24C43.7981 41.3953 44.2554 48.2887 39.5251 51.0197C39.3253 51.1351 39.1223 51.2388 38.9167 51.331Z" fill="#8694B5"/>
<path fill-rule="evenodd" clip-rule="evenodd" d="M50.0572 7.12118C46.6308 6.74996 42.312 6.74998 36.8024 6.75H36.5309C31.0213 6.74998 26.7025 6.74996 23.2761 7.12118C19.7795 7.50002 16.9463 8.28697 14.5274 10.0445C13.0629 11.1084 11.7751 12.3963 10.7111 13.8607C8.95364 16.2797 8.16669 19.1128 7.78786 22.6094C7.41663 26.0358 7.41665 30.3546 7.41667 35.8643V36.1357C7.41665 41.6454 7.41663 45.9642 7.78786 49.3906C8.16669 52.8872 8.95364 55.7203 10.7111 58.1393C11.7751 59.6037 13.0629 60.8916 14.5274 61.9555C16.9463 63.713 19.7795 64.5 23.2761 64.8788C26.7024 65.25 31.0212 65.25 36.5306 65.25H36.8025C42.312 65.25 46.6309 65.25 50.0572 64.8788C53.5539 64.5 56.387 63.713 58.806 61.9555C60.2704 60.8916 61.5582 59.6037 62.6222 58.1393C64.3797 55.7203 65.1667 52.8872 65.5455 49.3906C65.9167 45.9642 65.9167 41.6455 65.9167 36.136V35.8642C65.9167 30.3547 65.9167 26.0358 65.5455 22.6094C65.1667 19.1128 64.3797 16.2797 62.6222 13.8607C61.5582 12.3963 60.2704 11.1084 58.806 10.0445C56.387 8.28697 53.5539 7.50002 50.0572 7.12118ZM17.1724 13.685C18.6964 12.5778 20.6471 11.9324 23.7608 11.595C26.9166 11.2531 30.992 11.25 36.6667 11.25C42.3414 11.25 46.4167 11.2531 49.5725 11.595C52.6863 11.9324 54.6369 12.5778 56.1609 13.685C57.2433 14.4715 58.1952 15.4233 58.9816 16.5057C60.0889 18.0298 60.7343 19.9804 61.0717 23.0941C61.4136 26.25 61.4167 30.3253 61.4167 36C61.4167 41.6747 61.4136 45.75 61.0717 48.9059C60.7343 52.0196 60.0889 53.9702 58.9816 55.4943C58.1952 56.5767 57.2433 57.5286 56.1609 58.315C54.6369 59.4222 52.6863 60.0676 49.5725 60.405C46.4167 60.7469 42.3414 60.75 36.6667 60.75C30.992 60.75 26.9166 60.7469 23.7608 60.405C20.6471 60.0676 18.6964 59.4222 17.1724 58.315C16.09 57.5286 15.1381 56.5767 14.3517 55.4943C13.2444 53.9702 12.599 52.0196 12.2617 48.9059C11.9198 45.75 11.9167 41.6747 11.9167 36C11.9167 30.3253 11.9198 26.25 12.2617 23.0941C12.599 19.9804 13.2444 18.0298 14.3517 16.5057C15.1381 15.4233 16.09 14.4714 17.1724 13.685Z" fill="#8694B5"/>
</svg>
