<svg width="145" height="144" viewBox="0 0 145 144" fill="none" xmlns="http://www.w3.org/2000/svg">
<rect x="30.5" y="24.0001" width="80" height="92" fill="#0A0F1C"/>
<path d="M83 47.9998C83 43.8577 86.3579 40.4998 90.5 40.4998C94.6421 40.4998 98 43.8577 98 47.9998C98 52.142 94.6421 55.4999 90.5 55.4999C86.3579 55.4999 83 52.142 83 47.9998Z" fill="#A7C4FF"/>
<path d="M47 95.9999C47 91.8577 50.3579 88.4999 54.5 88.4999C58.6421 88.4999 62 91.8577 62 95.9999C62 100.142 58.6421 103.5 54.5 103.5C50.3579 103.5 47 100.142 47 95.9999Z" fill="#A7C4FF"/>
<path fill-rule="evenodd" clip-rule="evenodd" d="M99.2811 14.2424C92.4283 13.5 83.7907 13.5 72.7715 13.5001H72.2285C61.2093 13.5 52.5717 13.5 45.7189 14.2424C38.7256 15.0001 33.0594 16.574 28.2214 20.089C25.2925 22.2169 22.7169 24.7926 20.5889 27.7215C17.0739 32.5594 15.5 38.2257 14.7424 45.2189C13.9999 52.0718 14 60.7094 14 71.7286V72.2716C14 83.2908 13.9999 91.9284 14.7424 98.7812C15.5 105.774 17.0739 111.441 20.5889 116.279C22.7169 119.208 25.2925 121.783 28.2214 123.911C33.0594 127.426 38.7256 129 45.7189 129.758C52.5715 130.5 61.209 130.5 72.2279 130.5H72.7716C83.7906 130.5 92.4285 130.5 99.2811 129.758C106.274 129 111.941 127.426 116.779 123.911C119.707 121.783 122.283 119.208 124.411 116.279C127.926 111.441 129.5 105.774 130.258 98.7812C131 91.9286 131 83.2911 131 72.2722V71.7285C131 60.7095 131 52.0716 130.258 45.2189C129.5 38.2257 127.926 32.5594 124.411 27.7215C122.283 24.7926 119.707 22.2169 116.779 20.089C111.941 16.574 106.274 15.0001 99.2811 14.2424ZM90.5 31.4998C81.3873 31.4998 74 38.8871 74 47.9998C74 57.1125 81.3873 64.4999 90.5 64.4999C99.6127 64.4999 107 57.1126 107 47.9998C107 38.8871 99.6127 31.4998 90.5 31.4998ZM59.0003 36.0001C59.0003 33.5148 56.9856 31.5001 54.5003 31.5001C52.015 31.5001 50.0003 33.5148 50.0003 36.0001V72.0001C50.0003 74.4854 52.015 76.5001 54.5003 76.5001C56.9856 76.5001 59.0003 74.4854 59.0003 72.0001V36.0001ZM95.0003 72.0001C95.0003 69.5148 92.9856 67.5001 90.5003 67.5001C88.015 67.5001 86.0003 69.5148 86.0003 72.0001V108C86.0003 110.485 88.015 112.5 90.5003 112.5C92.9856 112.5 95.0003 110.485 95.0003 108V72.0001ZM54.5 79.4999C45.3873 79.4999 38 86.8872 38 95.9999C38 105.113 45.3873 112.5 54.5 112.5C63.6127 112.5 71 105.113 71 95.9999C71 86.8872 63.6127 79.4999 54.5 79.4999Z" fill="#A7C4FF"/>
</svg>
