<svg width="145" height="144" viewBox="0 0 145 144" fill="none" xmlns="http://www.w3.org/2000/svg">
<path d="M56.5693 49.8874L69.9525 28.1397C71.5356 25.5671 74.3401 24 77.3608 24C82.692 24 86.7689 28.7521 85.9583 34.0213L84.5 43.5C82.9226 53.7532 90.8556 63 101.229 63H105.368C120.59 63 130.49 79.0192 123.683 92.6343L116.792 106.416C111.71 116.58 101.322 123 89.959 123H72.5C64.4127 123 57.2596 119 52.9115 112.87C52.97 112.255 53 111.631 53 111V63C53 61.014 52.7031 59.0973 52.1513 57.292C53.2146 55.3387 54.6304 53.0381 56.5693 49.8874Z" fill="#A7C4FF"/>
<path d="M44 111C44 116.799 39.299 121.5 33.5 121.5C27.701 121.5 23 116.799 23 111V63C23 57.201 27.701 52.5 33.5 52.5C39.299 52.5 44 57.201 44 63V111Z" fill="#0A0F1C"/>
</svg>
