<svg width="32" height="32" viewBox="0 0 32 32" fill="none" xmlns="http://www.w3.org/2000/svg">
<path d="M19.8398 26.8226L19.2496 26.3598L19.2496 26.3598L19.8398 26.8226ZM12.1601 26.8226L11.5699 27.2854L12.1601 26.8226ZM15.9999 30.0055L15.9999 29.2555L15.9999 30.0055ZM27.0468 12.8873H26.2968C26.2968 14.6598 25.3801 16.9814 23.9865 19.4453C22.6095 21.8797 20.8331 24.3406 19.2496 26.3598L19.8398 26.8226L20.43 27.2854C22.036 25.2375 23.863 22.7103 25.2921 20.1838C26.7046 17.6865 27.7968 15.0741 27.7968 12.8873H27.0468ZM12.1601 26.8226L12.7503 26.3598C11.1668 24.3406 9.39038 21.8797 8.01337 19.4453C6.61976 16.9814 5.70312 14.6598 5.70312 12.8873H4.95312H4.20312C4.20312 15.0741 5.29525 17.6865 6.70776 20.1838C8.13687 22.7103 9.96391 25.2375 11.5699 27.2854L12.1601 26.8226ZM4.95312 12.8873H5.70312C5.70312 6.68361 10.364 1.75 15.9999 1.75V1V0.25C9.4339 0.25 4.20312 5.96067 4.20312 12.8873H4.95312ZM15.9999 1V1.75C21.6359 1.75 26.2968 6.68361 26.2968 12.8873H27.0468H27.7968C27.7968 5.96067 22.566 0.25 15.9999 0.25V1ZM19.8398 26.8226L19.2496 26.3598C18.4012 27.4417 17.8216 28.1768 17.2956 28.6546C16.8017 29.1033 16.4295 29.2555 15.9999 29.2555L15.9999 30.0055L15.9999 30.7555C16.9143 30.7555 17.6301 30.3772 18.3041 29.7649C18.9461 29.1818 19.6144 28.3254 20.43 27.2854L19.8398 26.8226ZM12.1601 26.8226L11.5699 27.2854C12.3855 28.3254 13.0538 29.1818 13.6958 29.7649C14.3698 30.3772 15.0856 30.7555 15.9999 30.7555L15.9999 30.0055L15.9999 29.2555C15.5704 29.2555 15.1982 29.1033 14.7043 28.6546C14.1783 28.1768 13.5987 27.4417 12.7503 26.3598L12.1601 26.8226ZM11.8574 13.4277H11.1074C11.1074 16.1298 13.2979 18.3202 15.9999 18.3202V17.5702V16.8202C14.1263 16.8202 12.6074 15.3013 12.6074 13.4277H11.8574ZM15.9999 17.5702V18.3202C18.702 18.3202 20.8925 16.1298 20.8925 13.4277H20.1425H19.3925C19.3925 15.3013 17.8736 16.8202 15.9999 16.8202V17.5702ZM20.1425 13.4277H20.8925C20.8925 10.7256 18.702 8.53512 15.9999 8.53512V9.28512V10.0351C17.8736 10.0351 19.3925 11.554 19.3925 13.4277H20.1425ZM15.9999 9.28512V8.53512C13.2979 8.53512 11.1074 10.7256 11.1074 13.4277H11.8574H12.6074C12.6074 11.554 14.1263 10.0351 15.9999 10.0351V9.28512Z" fill="#005CFF"/>
</svg>
