<svg width="145" height="144" viewBox="0 0 145 144" fill="none" xmlns="http://www.w3.org/2000/svg">
<rect x="34.5" y="38.0001" width="76" height="62" fill="#0A0F1C"/>
<path fill-rule="evenodd" clip-rule="evenodd" d="M51.1137 16.5396C57.2539 -4.976 87.7457 -4.976 93.8859 16.5396C95.8468 23.4105 102.906 27.4861 109.837 25.7488C131.54 20.3086 146.786 46.7153 131.223 62.7907C126.253 67.9243 126.253 76.0754 131.223 81.2091C146.786 97.2845 131.54 123.691 109.837 118.251C102.906 116.514 95.8468 120.589 93.8859 127.46C87.7457 148.976 57.2539 148.976 51.1137 127.46C49.1528 120.589 42.0937 116.514 35.1629 118.251C13.4597 123.691 -1.78615 97.2845 13.7767 81.2091C18.7467 76.0754 18.7467 67.9243 13.7767 62.7907C-1.78615 46.7153 13.4597 20.3086 35.1629 25.7488C42.0937 27.4861 49.1528 23.4105 51.1137 16.5396ZM99.957 56.8807C101.548 54.9715 101.29 52.1339 99.3808 50.5429C97.4716 48.9519 94.634 49.2098 93.043 51.1191L72.2617 76.0567C70.0369 78.7264 68.6707 80.3489 67.5452 81.3653C67.0232 81.8366 66.7136 82.0245 66.5652 82.0963C66.535 82.1109 66.5136 82.1196 66.5 82.1247C66.4864 82.1196 66.465 82.1109 66.4348 82.0963C66.2864 82.0245 65.9768 81.8366 65.4548 81.3653C64.3293 80.3489 62.9631 78.7264 60.7383 76.0567L51.957 65.5191C50.366 63.6098 47.5284 63.3519 45.6192 64.9429C43.7099 66.534 43.452 69.3715 45.043 71.2807L54.016 82.0484C55.9868 84.4138 57.7635 86.5463 59.423 88.0449C61.2287 89.6754 63.5031 91.1276 66.5 91.1276C69.4969 91.1276 71.7713 89.6754 73.577 88.0449C75.2365 86.5463 77.0132 84.4139 78.984 82.0484L99.957 56.8807Z" fill="#A7C4FF"/>
</svg>
