<svg width="73" height="72" viewBox="0 0 73 72" fill="none" xmlns="http://www.w3.org/2000/svg">
<path d="M13.4959 63.7896L14.6715 61.8712L14.6715 61.8712L13.4959 63.7896ZM8.5438 58.8375L10.4622 57.6619L10.4622 57.6619L8.5438 58.8375ZM64.123 58.8375L62.2046 57.6619L62.2046 57.6619L64.123 58.8375ZM59.1709 63.7896L57.9953 61.8712L57.9953 61.8712L59.1709 63.7896ZM59.1709 17.2104L57.9953 19.1288L57.9953 19.1288L59.1709 17.2104ZM64.123 22.1625L62.2046 23.3381L62.2046 23.3381L64.123 22.1625ZM13.4959 17.2104L14.6715 19.1288L14.6715 19.1288L13.4959 17.2104ZM8.5438 22.1625L10.4622 23.3381L10.4622 23.3381L8.5438 22.1625ZM55.7637 7.63935L57.3875 6.08183L57.3875 6.08183L55.7637 7.63935ZM11.8661 8.67237L13.2246 10.4659L13.2246 10.4659L11.8661 8.67237ZM8.89673 11.768L10.7427 13.0544L8.89673 11.768ZM57.3334 15.391L59.5834 15.391L59.5834 15.3799L57.3334 15.391ZM55.4243 40.841C56.6669 40.841 57.6743 39.8336 57.6743 38.591C57.6743 37.3483 56.6669 36.341 55.4243 36.341V40.841ZM47.2425 36.341C45.9999 36.341 44.9925 37.3483 44.9925 38.591C44.9925 39.8336 45.9999 40.841 47.2425 40.841V36.341ZM31.8334 15V17.25H40.8334V15V12.75H31.8334V15ZM40.8334 66V63.75H31.8334V66V68.25H40.8334V66ZM31.8334 66V63.75C26.8797 63.75 23.3224 63.7476 20.5477 63.4838C17.8064 63.2232 16.0621 62.7233 14.6715 61.8712L13.4959 63.7896L12.3203 65.708C14.5368 67.0663 17.0511 67.6716 20.1217 67.9636C23.1589 68.2524 26.9668 68.25 31.8334 68.25V66ZM6.3334 40.5H4.0834C4.0834 45.3666 4.08102 49.1745 4.3698 52.2117C4.66176 55.2823 5.2671 57.7966 6.62536 60.0131L8.5438 58.8375L10.4622 57.6619C9.61009 56.2713 9.11024 54.527 8.8496 51.7857C8.58577 49.011 8.5834 45.4537 8.5834 40.5H6.3334ZM13.4959 63.7896L14.6715 61.8712C12.956 60.8199 11.5135 59.3774 10.4622 57.6619L8.5438 58.8375L6.62536 60.0131C8.04772 62.3342 9.99922 64.2857 12.3203 65.708L13.4959 63.7896ZM40.8334 66V68.25C45.7 68.25 49.5079 68.2524 52.5451 67.9636C55.6157 67.6716 58.13 67.0663 60.3465 65.708L59.1709 63.7896L57.9953 61.8712C56.6047 62.7233 54.8604 63.2232 52.1191 63.4838C49.3444 63.7476 45.7871 63.75 40.8334 63.75V66ZM64.123 58.8375L62.2046 57.6619C61.1533 59.3774 59.7108 60.8199 57.9953 61.8712L59.1709 63.7896L60.3465 65.708C62.6676 64.2857 64.6191 62.3342 66.0414 60.0131L64.123 58.8375ZM59.1709 17.2104L57.9953 19.1288C59.7108 20.1801 61.1533 21.6226 62.2046 23.3381L64.123 22.1625L66.0414 20.9869C64.6191 18.6658 62.6676 16.7143 60.3465 15.292L59.1709 17.2104ZM31.8334 15V12.75C26.9668 12.75 23.1589 12.7476 20.1217 13.0364C17.0511 13.3284 14.5368 13.9337 12.3203 15.292L13.4959 17.2104L14.6715 19.1288C16.0621 18.2767 17.8064 17.7768 20.5477 17.5162C23.3224 17.2524 26.8797 17.25 31.8334 17.25V15ZM6.3334 40.5H8.5834C8.5834 35.5463 8.58577 31.989 8.8496 29.2143C9.11024 26.473 9.61009 24.7287 10.4622 23.3381L8.5438 22.1625L6.62536 20.9869C5.2671 23.2034 4.66176 25.7177 4.3698 28.7883C4.08102 31.8255 4.0834 35.6334 4.0834 40.5H6.3334ZM13.4959 17.2104L12.3203 15.292C9.99922 16.7143 8.04772 18.6658 6.62536 20.9869L8.5438 22.1625L10.4622 23.3381C11.5135 21.6226 12.956 20.1801 14.6715 19.1288L13.4959 17.2104ZM30.4926 6V8.25H46.5988V6V3.75H30.4926V6ZM46.5988 6V8.25C49.1958 8.25 50.9078 8.25519 52.1774 8.43314C53.3723 8.60062 53.8371 8.88116 54.14 9.19687L55.7637 7.63935L57.3875 6.08183C56.1179 4.75819 54.5311 4.21905 52.802 3.9767C51.1477 3.74481 49.0634 3.75 46.5988 3.75V6ZM30.4926 6V3.75C25.512 3.75 21.5882 3.74665 18.4752 4.09826C15.3144 4.45529 12.7225 5.2011 10.5075 6.8788L11.8661 8.67237L13.2246 10.4659C14.5378 9.47127 16.2263 8.8809 18.9803 8.56983C21.7822 8.25335 25.4076 8.25 30.4926 8.25V6ZM6.3334 31.1869H8.5834C8.5834 25.8919 8.58624 22.0941 8.89176 19.1542C9.19346 16.2511 9.76988 14.4504 10.7427 13.0544L8.89673 11.768L7.05077 10.4816C5.46025 12.7639 4.75501 15.4256 4.41587 18.689C4.08055 21.9156 4.0834 25.9881 4.0834 31.1869H6.3334ZM11.8661 8.67237L10.5075 6.8788C9.17757 7.88617 8.01173 9.10265 7.05077 10.4816L8.89673 11.768L10.7427 13.0544C11.4374 12.0575 12.2757 11.1847 13.2246 10.4659L11.8661 8.67237ZM57.3334 15.391L59.5834 15.3799C59.5733 13.3499 59.5301 11.5907 59.2758 10.1324C59.0116 8.61683 58.4896 7.23076 57.3875 6.08183L55.7637 7.63935L54.14 9.19687C54.42 9.48885 54.6726 9.92964 54.8427 10.9052C55.0227 11.9379 55.0732 13.3342 55.0834 15.4021L57.3334 15.391ZM6.3334 31.1869H4.0834C4.0834 34.1139 4.02292 36.7926 4.08417 39.0607L6.33335 39L8.58253 38.9393C8.52326 36.7446 8.5834 34.2721 8.5834 31.1869H6.3334ZM64.8333 46.7728V44.5228H47.2425V46.7728V49.0228H64.8333V46.7728ZM39.0607 38.591H36.8107C36.8107 44.3523 41.4812 49.0228 47.2425 49.0228V46.7728V44.5228C43.9664 44.5228 41.3107 41.867 41.3107 38.591H39.0607ZM39.0607 38.591H41.3107C41.3107 35.3149 43.9664 32.6591 47.2425 32.6591V30.4091V28.1591C41.4812 28.1591 36.8107 32.8296 36.8107 38.591H39.0607ZM55.4243 38.591V36.341H47.2425V38.591V40.841H55.4243V38.591ZM40.8334 15V17.25C44.9873 17.25 48.1681 17.251 50.7439 17.4099C53.3173 17.5687 55.1164 17.8783 56.5346 18.4169L57.3334 16.3134L58.1322 14.21C56.092 13.4352 53.7691 13.088 51.0211 12.9185C48.2755 12.749 44.9355 12.75 40.8334 12.75V15ZM57.3334 16.3134L56.5346 18.4169C57.0657 18.6186 57.5464 18.8538 57.9953 19.1288L59.1709 17.2104L60.3465 15.292C59.6462 14.8628 58.9116 14.506 58.1322 14.21L57.3334 16.3134ZM57.3334 15.391H55.0834V16.3134H57.3334H59.5834V15.391H57.3334ZM47.2425 30.4091V32.6591H66.1666V30.4091V28.1591H47.2425V30.4091ZM66.3334 40.5H68.5834C68.5834 36.3766 68.5844 33.0231 68.4122 30.2688L66.1666 30.4091L63.921 30.5495C64.0824 33.1318 64.0834 36.3241 64.0834 40.5H66.3334ZM66.1666 30.4091L68.4122 30.2688C68.177 26.5043 67.6075 23.5425 66.0414 20.9869L64.123 22.1625L62.2046 23.3381C63.1913 24.9483 63.7005 27.0212 63.921 30.5495L66.1666 30.4091ZM66.3334 40.5H64.0834C64.0834 42.8626 64.0833 44.9166 64.0531 46.7354L66.3028 46.7728L68.5525 46.8101C68.5835 44.9464 68.5834 42.8518 68.5834 40.5H66.3334ZM66.3028 46.7728L64.0531 46.7354C63.9556 52.6111 63.5237 55.5093 62.2046 57.6619L64.123 58.8375L66.0414 60.0131C68.082 56.6832 68.4565 52.5938 68.5525 46.8101L66.3028 46.7728ZM64.8333 46.7728V49.0228H66.3028V46.7728V44.5228H64.8333V46.7728Z" fill="#8694B5"/>
</svg>
